Coordinates
version=1
nRows=7
nColumns=46
inDegrees=yes

Units are S.I. units (second, meters, Newtons, ...)
Angles are in degrees.

endheader
time	pelvis_tilt	pelvis_list	pelvis_rotation	pelvis_tx	pelvis_ty	pelvis_tz	bb_angle	bb_tx	bb_ty	bb_tz	hip_flexion_r	hip_adduction_r	hip_rotation_r	knee_angle_r	knee_angle_r_beta	ankle_angle_r	subtalar_angle_r	mtp_angle_r	crank_angle_r	hip_flexion_l	hip_adduction_l	hip_rotation_l	knee_angle_l	knee_angle_l_beta	ankle_angle_l	subtalar_angle_l	mtp_angle_l	crank_angle_l	lumbar_extension	lumbar_bending	lumbar_rotation	arm_flex_r	arm_add_r	arm_rot_r	elbow_flex_r	pro_sup_r	wrist_flex_r	wrist_dev_r	arm_flex_l	arm_add_l	arm_rot_l	elbow_flex_l	pro_sup_l	wrist_flex_l	wrist_dev_l
      7.50500000	    -10.54555225	     -1.84102892	      0.51788750	      0.15376618	      1.07258407	     -0.25934517	      0.00000000	      0.50000000	      0.00000000	      0.25000000	     64.35749798	     -4.07151476	      1.06036661	    107.39509782	      1.87439806	      1.04740839	    -14.21473833	      0.00000000	      0.00000000	     61.06625443	     -3.68748165	      2.25584372	     64.18428534	      1.12022711	      5.64392326	    -12.00636987	      0.00000000	      0.00000000	    -62.20387235	      1.24543305	      0.64040591	     81.34481027	    -12.97530202	     31.09034540	     47.05562293	     45.49231877	      0.00000000	      0.00000000	     82.75011839	    -12.60992006	     40.07047025	     46.73524764	     44.21657035	      0.00000000	      0.00000000
      7.51000000	    -10.55856561	     -2.03609864	      0.50617409	      0.15354907	      1.07296426	     -0.25942034	      0.00000000	      0.50000000	      0.00000000	      0.25000000	     65.10852252	     -3.89991738	      1.08186603	    108.51101396	      1.89387447	      2.04856625	    -13.98614810	      0.00000000	      0.00000000	     59.88909871	     -3.94217897	      2.11483302	     62.54253898	      1.09157323	      5.33836192	    -11.81677467	      0.00000000	      0.00000000	    -62.19393619	      1.39135978	      0.86779302	     81.45492006	    -12.97115867	     31.16908337	     46.88727081	     45.50911151	      0.00000000	      0.00000000	     82.83303638	    -12.42532918	     40.14220523	     46.39734004	     44.18809000	      0.00000000	      0.00000000
      7.51500000	    -10.69301355	     -2.39741746	      0.51669785	      0.15333307	      1.07317308	     -0.25953557	      0.00000000	      0.50000000	      0.00000000	      0.25000000	     65.95416897	     -3.64851674	      0.87687961	    109.53187743	      1.91169190	      2.79002326	    -14.14155992	      0.00000000	      0.00000000	     58.93306396	     -4.29428347	      2.12663243	     61.03151739	      1.06520093	      5.06487691	    -11.56556679	      0.00000000	      0.00000000	    -62.08377104	      1.71412829	      1.20956857	     81.53469541	    -12.89380543	     31.20142129	     46.87660234	     45.51669874	      0.00000000	      0.00000000	     82.82389369	    -12.42139738	     40.15244170	     46.31989985	     44.18090182	      0.00000000	      0.00000000
      7.52000000	    -10.61047377	     -2.41862207	      0.57919015	      0.15318983	      1.07381491	     -0.25979663	      0.00000000	      0.50000000	      0.00000000	      0.25000000	     66.58007392	     -3.71006369	      1.03604400	    110.62830139	      1.93082811	      4.16923010	    -13.48865978	      0.00000000	      0.00000000	     57.62195025	     -4.36685888	      1.83945911	     59.39195330	      1.03658513	      4.58521494	    -11.46256067	      0.00000000	      0.00000000	    -62.16530488	      1.80029345	      1.23867786	     81.65135674	    -12.92153524	     31.25063602	     46.68104486	     45.51578901	      0.00000000	      0.00000000	     82.92105317	    -12.20269468	     40.17628028	     46.03667970	     44.14991636	      0.00000000	      0.00000000
      7.52500000	    -10.66743429	     -2.64417461	      0.62401678	      0.15299032	      1.07426278	     -0.25999507	      0.00000000	      0.50000000	      0.00000000	      0.25000000	     67.31836512	     -3.62663794	      0.94932420	    111.59525101	      1.94770456	      5.34230066	    -13.25938511	      0.00000000	      0.00000000	     56.54670215	     -4.59831431	      1.73586692	     57.86075042	      1.00986060	      4.15141050	    -11.26076826	      0.00000000	      0.00000000	    -62.16376695	      2.04791989	      1.44174066	     81.76604811	    -12.86618556	     31.30037414	     46.58390038	     45.52207955	      0.00000000	      0.00000000	     82.95446841	    -12.12256244	     40.18341215	     45.82006439	     44.12481463	      0.00000000	      0.00000000
      7.53000000	    -10.80513224	     -2.94152045	      0.64600392	      0.15280631	      1.07460075	     -0.26016928	      0.00000000	      0.50000000	      0.00000000	      0.25000000	     68.14501553	     -3.49221125	      0.79471114	    112.49078888	      1.96333464	      6.27993148	    -13.21499811	      0.00000000	      0.00000000	     55.57288840	     -4.88011848	      1.71025848	     56.37322129	      0.98389832	      3.86826728	    -11.02079388	      0.00000000	      0.00000000	    -62.07335505	      2.31718508	      1.69714743	     81.86005690	    -12.81257740	     31.32846302	     46.54072545	     45.52455255	      0.00000000	      0.00000000	     82.96758604	    -12.10908878	     40.18082378	     45.72157634	     44.11279643	      0.00000000	      0.00000000
      7.53500000	    -10.62996967	     -2.88046155	      0.75112593	      0.15274338	      1.07546366	     -0.26057763	      0.00000000	      0.50000000	      0.00000000	      0.25000000	     68.64259407	     -3.71920293	      1.03584192	    113.46980599	      1.98042172	      8.03568135	    -11.91977504	      0.00000000	      0.00000000	     54.13987534	     -4.81305749	      1.45673175	     54.77538134	      0.95601075	      3.37642092	    -11.04238209	      0.00000000	      0.00000000	    -62.28614014	      2.36360500	      1.60450483	     82.01766796	    -12.79897441	     31.41374801	     46.23896671	     45.51698625	      0.00000000	      0.00000000	     83.12520447	    -11.87691000	     40.14809808	     45.34066695	     44.06265615	      0.00000000	      0.00000000
